<?xml version="1.0" encoding="UTF-8" standalone="no"?>
<svg
   width="154"
   height="32"
   viewBox="0 0 154 32"
   fill="none"
   version="1.1"
   id="svg19"
   sodipodi:docname="logo.svg"
   inkscape:version="1.4.3 (0d15f75, 2025-12-25)"
   xmlns:inkscape="http://www.inkscape.org/namespaces/inkscape"
   xmlns:sodipodi="http://sodipodi.sourceforge.net/DTD/sodipodi-0.dtd"
   xmlns="http://www.w3.org/2000/svg"
   xmlns:svg="http://www.w3.org/2000/svg">
  <sodipodi:namedview
     id="namedview19"
     pagecolor="#ffffff"
     bordercolor="#000000"
     borderopacity="0.25"
     inkscape:showpageshadow="2"
     inkscape:pageopacity="0.0"
     inkscape:pagecheckerboard="0"
     inkscape:deskcolor="#d1d1d1"
     inkscape:zoom="2.8831169"
     inkscape:cx="75.439189"
     inkscape:cy="-60.524774"
     inkscape:window-width="1920"
     inkscape:window-height="1009"
     inkscape:window-x="-8"
     inkscape:window-y="-8"
     inkscape:window-maximized="1"
     inkscape:current-layer="svg19" />
  <defs
     id="defs19">
    <filter
       id="filter0_d_1624_24907"
       x="7.42383"
       y="6.2373"
       width="5.36841"
       height="20.5263"
       filterUnits="userSpaceOnUse"
       color-interpolation-filters="sRGB">
      <feFlood
         flood-opacity="0"
         result="BackgroundImageFix"
         id="feFlood13" />
      <feColorMatrix
         in="SourceAlpha"
         type="matrix"
         values="0 0 0 0 0 0 0 0 0 0 0 0 0 0 0 0 0 0 127 0"
         result="hardAlpha"
         id="feColorMatrix13" />
      <feOffset
         dy="0.5"
         id="feOffset13" />
      <feGaussianBlur
         stdDeviation="0.5"
         id="feGaussianBlur13" />
      <feComposite
         in2="hardAlpha"
         operator="out"
         id="feComposite13" />
      <feColorMatrix
         type="matrix"
         values="0 0 0 0 0 0 0 0 0 0 0 0 0 0 0 0 0 0 0.12 0"
         id="feColorMatrix14" />
      <feBlend
         mode="normal"
         in2="BackgroundImageFix"
         result="effect1_dropShadow_1624_24907"
         id="feBlend14" />
      <feBlend
         mode="normal"
         in="SourceGraphic"
         in2="effect1_dropShadow_1624_24907"
         result="shape"
         id="feBlend15" />
    </filter>
    <filter
       id="filter1_d_1624_24907"
       x="13.7422"
       y="12.9727"
       width="5.36841"
       height="13.7895"
       filterUnits="userSpaceOnUse"
       color-interpolation-filters="sRGB">
      <feFlood
         flood-opacity="0"
         result="BackgroundImageFix"
         id="feFlood15" />
      <feColorMatrix
         in="SourceAlpha"
         type="matrix"
         values="0 0 0 0 0 0 0 0 0 0 0 0 0 0 0 0 0 0 127 0"
         result="hardAlpha"
         id="feColorMatrix15" />
      <feOffset
         dy="0.5"
         id="feOffset15" />
      <feGaussianBlur
         stdDeviation="0.5"
         id="feGaussianBlur15" />
      <feComposite
         in2="hardAlpha"
         operator="out"
         id="feComposite15" />
      <feColorMatrix
         type="matrix"
         values="0 0 0 0 0 0 0 0 0 0 0 0 0 0 0 0 0 0 0.12 0"
         id="feColorMatrix16" />
      <feBlend
         mode="normal"
         in2="BackgroundImageFix"
         result="effect1_dropShadow_1624_24907"
         id="feBlend16" />
      <feBlend
         mode="normal"
         in="SourceGraphic"
         in2="effect1_dropShadow_1624_24907"
         result="shape"
         id="feBlend17" />
    </filter>
    <filter
       id="filter2_d_1624_24907"
       x="20.0547"
       y="8.76172"
       width="5.36841"
       height="18"
       filterUnits="userSpaceOnUse"
       color-interpolation-filters="sRGB">
      <feFlood
         flood-opacity="0"
         result="BackgroundImageFix"
         id="feFlood17" />
      <feColorMatrix
         in="SourceAlpha"
         type="matrix"
         values="0 0 0 0 0 0 0 0 0 0 0 0 0 0 0 0 0 0 127 0"
         result="hardAlpha"
         id="feColorMatrix17" />
      <feOffset
         dy="0.5"
         id="feOffset17" />
      <feGaussianBlur
         stdDeviation="0.5"
         id="feGaussianBlur17" />
      <feComposite
         in2="hardAlpha"
         operator="out"
         id="feComposite17" />
      <feColorMatrix
         type="matrix"
         values="0 0 0 0 0 0 0 0 0 0 0 0 0 0 0 0 0 0 0.12 0"
         id="feColorMatrix18" />
      <feBlend
         mode="normal"
         in2="BackgroundImageFix"
         result="effect1_dropShadow_1624_24907"
         id="feBlend18" />
      <feBlend
         mode="normal"
         in="SourceGraphic"
         in2="effect1_dropShadow_1624_24907"
         result="shape"
         id="feBlend19" />
    </filter>
  </defs>
  <path
     d="M 4.9443657,0.16626956 C 3.1551117,0.41651544 1.6035897,1.4800585 0.8278297,3.0065531 0.1771937,4.2828068 0.1897057,4.157683 0.1897057,16.006799 c 0,6.919284 0.05005,11.273551 0.125121,11.698969 0.387879,2.039499 2.052013,3.75368 4.091512,4.179097 0.700686,0.150147 2.727671,0.187684 11.6739413,0.187684 6.493867,0 11.123407,-0.05004 11.573848,-0.125123 1.939398,-0.312806 3.565991,-1.739205 4.241654,-3.691117 0.175172,-0.550541 0.200198,-1.751718 0.200198,-12.124386 0,-12.337096 0.01251,-11.9617267 -0.625613,-13.2129539 C 31.057461,2.1056709 29.968895,1.0921779 29.055501,0.66676042 28.592545,0.44153931 27.891861,0.24134465 27.328807,0.16626956 c -1.088566,-0.13763274 -21.3459233,-0.13763274 -22.3844413,0 z M 23.19976,6.6225997 c 0.450442,0.2627576 0.625616,0.5630528 0.713198,1.2262017 0.125125,0.9008833 -0.03754,1.6516185 -0.462954,2.0770364 l -0.38788,0.3753682 h -4.742145 c -5.342741,0 -5.480372,0.02502 -5.805691,0.800785 -0.225221,0.513003 -0.250246,1.626594 -0.05004,2.177134 0.287778,0.82581 0.325318,0.82581 5.242634,0.900884 4.792199,0.06256 4.829737,0.07506 5.455353,0.775761 0.663148,0.713199 0.738219,1.038518 0.738219,3.040479 0,2.127084 -0.100097,2.477429 -0.938418,3.240678 -0.500491,0.450441 -1.31379,0.700686 -2.314771,0.700686 h -0.563051 v 1.251227 c 0,1.376349 -0.16266,1.964425 -0.638123,2.302257 -0.26276,0.175171 -0.863348,0.200197 -5.242641,0.200197 -5.3677613,0 -5.2426383,0.01251 -5.6180093,-0.7132 -0.212708,-0.412905 -0.175167,-1.98945 0.06256,-2.427378 0.362857,-0.713201 0.538029,-0.738226 6.1810643,-0.738226 h 5.130024 v -1.476446 c 0,-1.564033 -0.08758,-1.826792 -0.713197,-2.139599 -0.187686,-0.08759 -1.739204,-0.137635 -4.917322,-0.137635 -5.1050043,0 -5.3177123,-0.02502 -5.6805693,-0.738223 -0.162659,-0.312806 -0.200195,-0.888371 -0.200195,-3.278214 v -2.890332 l 0.425415,-0.425418 c 0.400393,-0.400393 0.487982,-0.425417 1.2262043,-0.425417 1.739206,0 2.089548,-0.3253184 2.21467,-2.0144745 0.07506,-1.1386155 0.26276,-1.5139836 0.825812,-1.7517169 0.137634,-0.050037 2.377327,-0.1000973 4.979879,-0.1000973 4.154071,-0.012512 4.779687,0.012512 5.07998,0.1876847 z"
     id="path1-0"
     style="fill:#465fff;fill-opacity:1;stroke:none;stroke-width:0.0125123" />
  <text
     xml:space="preserve"
     style="font-style:normal;font-variant:normal;font-weight:normal;font-stretch:normal;font-size:33.917px;font-family:Arial;-inkscape-font-specification:Arial;writing-mode:lr-tb;direction:ltr;fill:#101828;fill-opacity:1;stroke-width:2.8264"
     x="42.438637"
     y="26.782787"
     id="text1"><tspan
       sodipodi:role="line"
       id="tspan1"
       style="font-style:normal;font-variant:normal;font-weight:bold;font-stretch:normal;font-family:Calibri;-inkscape-font-specification:'Calibri Bold';fill:#101828;fill-opacity:1;stroke-width:2.8264"
       x="42.438637"
       y="26.782787">SIRAPP</tspan></text>
</svg>
