<?xml version="1.0" encoding="UTF-8" standalone="no"?>
<svg
   width="32"
   height="32"
   viewBox="0 0 32 32"
   fill="none"
   version="1.1"
   id="svg10"
   sodipodi:docname="logo-icon.svg"
   inkscape:version="1.4.3 (0d15f75, 2025-12-25)"
   xmlns:inkscape="http://www.inkscape.org/namespaces/inkscape"
   xmlns:sodipodi="http://sodipodi.sourceforge.net/DTD/sodipodi-0.dtd"
   xmlns="http://www.w3.org/2000/svg"
   xmlns:svg="http://www.w3.org/2000/svg">
  <sodipodi:namedview
     id="namedview10"
     pagecolor="#ffffff"
     bordercolor="#000000"
     borderopacity="0.25"
     inkscape:showpageshadow="2"
     inkscape:pageopacity="0.0"
     inkscape:pagecheckerboard="0"
     inkscape:deskcolor="#d1d1d1"
     inkscape:zoom="4.4580873"
     inkscape:cx="16.038268"
     inkscape:cy="16.038268"
     inkscape:window-width="1920"
     inkscape:window-height="1009"
     inkscape:window-x="-8"
     inkscape:window-y="-8"
     inkscape:window-maximized="1"
     inkscape:current-layer="svg10" />
  <path
     d="m 4.8889147,0.22257013 c -1.775289,0.248293 -3.314704,1.30353497 -4.08440903,2.81811897 -0.645559,1.266292 -0.633144,1.142145 -0.633144,12.8987889 0,6.865285 0.04966,11.185572 0.124144,11.60767 0.384853,2.023581 2.03599903,3.724385 4.05958203,4.146482 0.695217,0.148975 2.706384,0.186219 11.5828363,0.186219 6.443188,0 11.036598,-0.04965 11.483525,-0.124147 1.924263,-0.310364 3.538162,-1.72563 4.208553,-3.662311 0.173805,-0.546243 0.198636,-1.738048 0.198636,-12.029766 0,-12.2408149 0.01242,-11.8683759 -0.620731,-13.1098389 -0.409684,-0.80695 -1.489754,-1.812534 -2.396022,-2.23463098 -0.459341,-0.223463 -1.154559,-0.422096 -1.713216,-0.496585 -1.080073,-0.136559 -21.1793393,-0.136559 -22.2097543,10e-9 z M 23.001843,6.6285141 c 0.446927,0.260708 0.620732,0.558658 0.707633,1.216633 0.124148,0.893852 -0.03725,1.63873 -0.459342,2.060828 l -0.384852,0.3724389 h -4.705138 c -5.301044,0 -5.437603,0.02483 -5.760382,0.794534 -0.223464,0.508999 -0.248294,1.613901 -0.04965,2.160143 0.285533,0.819366 0.32278,0.819366 5.201721,0.893853 4.7548,0.06208 4.792045,0.07448 5.412777,0.769707 0.657975,0.707633 0.732459,1.030413 0.732459,3.016751 0,2.110485 -0.09932,2.458095 -0.931095,3.215388 -0.496584,0.446925 -1.303536,0.695217 -2.296705,0.695217 h -0.558657 v 1.241462 c 0,1.365608 -0.161391,1.949095 -0.633144,2.284291 -0.260709,0.173804 -0.85661,0.198633 -5.201726,0.198633 -5.3258703,0 -5.2017233,0.01242 -5.5741653,-0.707633 -0.211048,-0.409683 -0.173801,-1.973924 0.06208,-2.408435 0.360026,-0.707635 0.53383,-0.732464 6.1328243,-0.732464 h 5.08999 v -1.464924 c 0,-1.551827 -0.08691,-1.812535 -0.707632,-2.1229 -0.18622,-0.08691 -1.725631,-0.136562 -4.878946,-0.136562 -5.0651633,0 -5.2762103,-0.02483 -5.6362363,-0.732461 -0.161396,-0.310366 -0.198638,-0.881439 -0.198638,-3.252631 v -2.867776 l 0.422095,-0.422097 c 0.397268,-0.397268 0.484173,-0.422096 1.2166353,-0.422096 1.725633,0 2.073239,-0.3227809 2.197386,-1.9987549 0.07448,-1.129729 0.260709,-1.502168 0.819367,-1.738047 0.136559,-0.04965 2.358774,-0.09931 4.941015,-0.09931 4.121653,-0.01242 4.742385,0.01242 5.040336,0.18622 z"
     id="path1-9"
     style="fill:#465fff;fill-opacity:1;stroke:none;stroke-width:0.0124147" />
  <defs
     id="defs10">
    <filter
       id="filter0_d_1884_16361"
       x="7.42383"
       y="6.2373"
       width="5.36841"
       height="20.5264"
       filterUnits="userSpaceOnUse"
       color-interpolation-filters="sRGB">
      <feFlood
         flood-opacity="0"
         result="BackgroundImageFix"
         id="feFlood4" />
      <feColorMatrix
         in="SourceAlpha"
         type="matrix"
         values="0 0 0 0 0 0 0 0 0 0 0 0 0 0 0 0 0 0 127 0"
         result="hardAlpha"
         id="feColorMatrix4" />
      <feOffset
         dy="0.5"
         id="feOffset4" />
      <feGaussianBlur
         stdDeviation="0.5"
         id="feGaussianBlur4" />
      <feComposite
         in2="hardAlpha"
         operator="out"
         id="feComposite4" />
      <feColorMatrix
         type="matrix"
         values="0 0 0 0 0 0 0 0 0 0 0 0 0 0 0 0 0 0 0.12 0"
         id="feColorMatrix5" />
      <feBlend
         mode="normal"
         in2="BackgroundImageFix"
         result="effect1_dropShadow_1884_16361"
         id="feBlend5" />
      <feBlend
         mode="normal"
         in="SourceGraphic"
         in2="effect1_dropShadow_1884_16361"
         result="shape"
         id="feBlend6" />
    </filter>
    <filter
       id="filter1_d_1884_16361"
       x="13.7422"
       y="12.9727"
       width="5.36841"
       height="13.7891"
       filterUnits="userSpaceOnUse"
       color-interpolation-filters="sRGB">
      <feFlood
         flood-opacity="0"
         result="BackgroundImageFix"
         id="feFlood6" />
      <feColorMatrix
         in="SourceAlpha"
         type="matrix"
         values="0 0 0 0 0 0 0 0 0 0 0 0 0 0 0 0 0 0 127 0"
         result="hardAlpha"
         id="feColorMatrix6" />
      <feOffset
         dy="0.5"
         id="feOffset6" />
      <feGaussianBlur
         stdDeviation="0.5"
         id="feGaussianBlur6" />
      <feComposite
         in2="hardAlpha"
         operator="out"
         id="feComposite6" />
      <feColorMatrix
         type="matrix"
         values="0 0 0 0 0 0 0 0 0 0 0 0 0 0 0 0 0 0 0.12 0"
         id="feColorMatrix7" />
      <feBlend
         mode="normal"
         in2="BackgroundImageFix"
         result="effect1_dropShadow_1884_16361"
         id="feBlend7" />
      <feBlend
         mode="normal"
         in="SourceGraphic"
         in2="effect1_dropShadow_1884_16361"
         result="shape"
         id="feBlend8" />
    </filter>
    <filter
       id="filter2_d_1884_16361"
       x="20.0547"
       y="8.76172"
       width="5.36841"
       height="18"
       filterUnits="userSpaceOnUse"
       color-interpolation-filters="sRGB">
      <feFlood
         flood-opacity="0"
         result="BackgroundImageFix"
         id="feFlood8" />
      <feColorMatrix
         in="SourceAlpha"
         type="matrix"
         values="0 0 0 0 0 0 0 0 0 0 0 0 0 0 0 0 0 0 127 0"
         result="hardAlpha"
         id="feColorMatrix8" />
      <feOffset
         dy="0.5"
         id="feOffset8" />
      <feGaussianBlur
         stdDeviation="0.5"
         id="feGaussianBlur8" />
      <feComposite
         in2="hardAlpha"
         operator="out"
         id="feComposite8" />
      <feColorMatrix
         type="matrix"
         values="0 0 0 0 0 0 0 0 0 0 0 0 0 0 0 0 0 0 0.12 0"
         id="feColorMatrix9" />
      <feBlend
         mode="normal"
         in2="BackgroundImageFix"
         result="effect1_dropShadow_1884_16361"
         id="feBlend9" />
      <feBlend
         mode="normal"
         in="SourceGraphic"
         in2="effect1_dropShadow_1884_16361"
         result="shape"
         id="feBlend10" />
    </filter>
  </defs>
</svg>
